<?xml version="1.0" standalone="no"?>
<!DOCTYPE svg PUBLIC "-//W3C//DTD SVG 20010904//EN"
 "http://www.w3.org/TR/2001/REC-SVG-20010904/DTD/svg10.dtd">
<svg version="1.0" xmlns="http://www.w3.org/2000/svg"
 width="697.000000pt" height="697.000000pt" viewBox="0 0 697.000000 697.000000"
 preserveAspectRatio="xMidYMid meet">
<metadata>
Created by potrace 1.14, written by Peter Selinger 2001-2017
</metadata>
<g transform="translate(0.000000,697.000000) scale(0.100000,-0.100000)"
fill="#000000" stroke="none">
<path d="M2717 5724 c-1 -1 -36 -5 -77 -8 -41 -3 -86 -8 -100 -11 -54 -11 -67
-13 -110 -21 -50 -9 -58 -10 -65 -14 -3 -1 -13 -3 -22 -5 -10 -1 -25 -4 -33
-8 -8 -3 -46 -15 -85 -27 -38 -11 -79 -25 -90 -29 -11 -5 -56 -24 -100 -42
-128 -53 -248 -120 -365 -204 -113 -81 -129 -95 -235 -200 -117 -116 -153
-159 -230 -275 -111 -167 -192 -347 -241 -535 -26 -101 -28 -114 -41 -215 -10
-71 -9 -362 0 -420 4 -25 10 -62 13 -82 3 -20 12 -63 20 -95 9 -32 17 -67 20
-77 27 -134 178 -443 270 -555 52 -63 114 -144 112 -146 -2 -2 -28 -5 -58 -9
-133 -13 -308 -71 -425 -139 -53 -31 -96 -66 -161 -131 -225 -227 -253 -548
-63 -738 49 -49 49 -53 -1 -62 -14 -2 -37 -9 -53 -15 -15 -6 -27 -8 -27 -6 0
10 -146 -50 -167 -69 -52 -45 -15 -89 115 -132 48 -16 89 -29 92 -30 81 -13
119 -21 123 -24 3 -2 34 -8 82 -15 22 -3 51 -7 65 -10 26 -6 72 -12 155 -20
28 -3 61 -8 75 -10 14 -3 52 -7 85 -10 33 -3 76 -7 95 -9 62 -7 183 -17 250
-22 214 -14 301 -19 505 -29 533 -26 1627 -26 2115 0 336 18 501 29 725 49 39
4 81 8 95 11 14 2 56 6 93 10 37 3 76 8 86 10 10 2 42 6 73 9 30 3 79 11 109
16 30 6 70 13 89 16 54 8 199 43 248 59 91 31 139 69 128 102 -11 33 -109 83
-195 99 -14 3 -28 7 -31 9 -4 2 -20 7 -36 9 -16 3 -39 8 -51 11 -13 3 -32 7
-42 9 -11 3 -40 8 -65 11 -25 4 -46 10 -46 14 0 3 37 19 83 34 153 53 351 150
459 225 26 17 51 32 56 32 6 0 12 3 14 8 2 4 37 33 78 64 73 55 250 221 250
234 0 4 13 20 30 35 16 16 26 29 22 29 -4 0 0 6 8 13 42 33 150 227 185 332
71 213 43 464 -66 604 -19 24 -19 24 15 50 41 32 90 102 106 155 18 56 8 161
-20 216 -63 124 -229 201 -360 168 -95 -24 -196 -104 -222 -174 -15 -42 -21
-42 -36 -1 -13 35 -83 117 -101 117 -6 0 -11 4 -11 9 0 5 -25 19 -56 31 -268
100 -523 -136 -425 -392 24 -63 83 -129 144 -160 l39 -19 -33 -25 c-18 -13
-38 -24 -45 -24 -7 0 -14 -3 -16 -7 -9 -22 -339 -184 -512 -252 -71 -28 -130
-50 -131 -49 -2 2 6 28 16 58 10 30 20 66 23 80 2 14 11 54 20 90 8 36 18 85
21 110 3 25 7 52 10 60 20 63 19 419 -1 543 -2 15 -6 42 -9 60 -39 244 -123
482 -254 722 -30 55 -113 180 -122 183 -5 2 -9 9 -9 15 0 7 -15 29 -33 49 -17
20 -50 58 -72 84 -103 121 -342 334 -375 334 -6 0 -10 5 -10 10 0 6 -6 10 -14
10 -8 0 -16 4 -18 8 -8 22 -246 148 -359 192 -30 11 -63 25 -74 30 -44 20
-239 71 -325 85 -25 4 -52 9 -61 10 -67 13 -145 18 -277 20 -83 1 -153 1 -155
-1z"/>
</g>
</svg>
